<?xml version="1.0" encoding="utf-8" standalone="no"?>
<!DOCTYPE svg PUBLIC "-//W3C//DTD SVG 1.1//EN"
  "http://www.w3.org/Graphics/SVG/1.1/DTD/svg11.dtd">
<svg xmlns:xlink="http://www.w3.org/1999/xlink" width="500pt" height="350pt" viewBox="0 125 250 350" xmlns="http://www.w3.org/2000/svg" version="1.1">
 <metadata>
  <rdf:RDF xmlns:dc="http://purl.org/dc/elements/1.1/" xmlns:cc="http://creativecommons.org/ns#" xmlns:rdf="http://www.w3.org/1999/02/22-rdf-syntax-ns#">
   <cc:Work>
    <dc:type rdf:resource="http://purl.org/dc/dcmitype/StillImage"/>
    <dc:date>2025-07-21T20:19:26.980681</dc:date>
    <dc:format>image/svg+xml</dc:format>
    <dc:creator>
     <cc:Agent>
      <dc:title>Matplotlib v3.7.1, https://matplotlib.org/</dc:title>
     </cc:Agent>
    </dc:creator>
   </cc:Work>
  </rdf:RDF>
 </metadata>
 <defs>
  <style type="text/css">*{stroke-linejoin: round; stroke-linecap: butt}</style>
 </defs>
 <g id="figure_1">
  <g id="patch_1">
   <path d="M 0 345.6 
L 497.320907 345.6 
L 497.320907 0 
L 0 0 
z
" style="fill: #ffffff"/>
  </g>
  <g id="axes_1">
   <g id="patch_2">
    <path d="M 0 345.6 
L 497.320907 345.6 
L 497.320907 0 
L 0 0 
z
" style="fill: #212830"/>
   </g>
   <g id="patch_3">
    <path d="M 209.95109 170.996336 
L 209.258275 172.895152 
L 209.172862 174.700996 
L 208.043217 174.282601 
L 207.488988 175.41903 
L 208.634694 177.762848 
L 208.957078 179.080583 
L 210.802787 178.116621 
L 211.903534 178.663948 
L 211.158572 180.526349 
L 211.448211 181.20525 
L 210.764899 181.955987 
L 210.685261 183.042963 
L 209.170934 182.691513 
L 209.267273 184.019526 
L 208.896715 185.044607 
L 209.526719 185.56504 
L 209.583883 186.763237 
L 208.527446 186.743329 
L 209.238367 188.789326 
L 208.501755 189.107829 
L 208.166526 190.635919 
L 207.404224 191.480267 
L 207.65468 193.078079 
L 206.114023 192.732774 
L 205.419153 193.66895 
L 204.319694 193.797191 
L 204.209239 194.767533 
L 203.531062 195.49375 
L 204.630521 196.029468 
L 202.870023 197.939378 
L 200.947343 197.54558 
L 199.656881 197.628812 
L 199.066861 197.197084 
L 196.632748 196.746888 
L 192.683971 195.513329 
L 190.28059 194.997787 
L 188.665833 193.944759 
L 187.060471 193.949776 
L 182.606363 193.297449 
L 180.6479 193.451566 
L 178.587173 194.410705 
L 175.836677 194.501025 
L 174.506577 193.985618 
L 173.525444 193.054434 
L 174.607731 189.263495 
L 174.359194 187.92927 
L 173.04933 188.064776 
L 172.856425 187.099686 
L 171.996268 186.175388 
L 172.026782 185.070777 
L 172.777931 182.705579 
L 175.362104 183.440305 
L 176.192159 183.259227 
L 177.442798 181.857434 
L 180.492908 179.854426 
L 183.632825 176.315365 
L 185.690943 172.841322 
L 186.643507 172.288221 
L 186.57987 171.523065 
L 187.991949 170.92227 
L 190.116953 170.817674 
L 192.847532 171.100285 
L 195.414753 170.517184 
L 196.932017 170.677429 
L 200.341919 170.003267 
L 201.912197 170.194017 
L 202.895006 169.905539 
L 203.835769 170.348134 
L 204.825084 170.081929 
L 206.843168 170.669138 
L 208.391426 170.659542 
L 209.95109 170.996336 
" clip-path="url(#p33e6704735)" style="fill: #ffffff"/>
   </g>
   <g id="patch_4">
    <path d="M 270.015652 310.709124 
L 271.477369 307.577263 
L 270.626438 306.852772 
L 270.358642 305.805493 
L 271.293058 300.608738 
L 273.195274 299.192265 
L 274.568321 298.78382 
L 275.31585 300.103078 
L 275.164932 300.756205 
L 276.091638 301.390628 
L 278.149276 299.749937 
L 278.973868 297.662921 
L 277.524407 296.173721 
L 276.336319 292.855831 
L 277.492934 291.800682 
L 277.002291 290.206961 
L 278.034317 288.055484 
L 278.11138 285.703551 
L 278.953321 284.775406 
L 280.227461 284.672165 
L 280.947373 282.88032 
L 280.250584 281.363266 
L 281.183064 280.149816 
L 282.879783 279.567413 
L 284.004284 277.84774 
L 285.661827 276.009573 
L 287.291752 275.45888 
L 288.733512 274.500785 
L 290.497015 274.764086 
L 291.369781 273.972811 
L 294.48256 273.43503 
L 295.031645 272.858335 
L 297.985164 273.298968 
L 299.108386 274.378276 
L 300.151338 272.885136 
L 301.59952 272.614613 
L 302.117132 270.497084 
L 303.103569 270.123799 
L 304.429729 268.762958 
L 304.530555 267.845966 
L 303.494674 266.803426 
L 303.718799 264.776613 
L 302.53136 263.072992 
L 304.665421 259.091143 
L 306.48608 257.427253 
L 307.480218 255.545508 
L 308.826935 254.578339 
L 312.66412 256.744547 
L 314.079549 256.988185 
L 316.259208 257.968594 
L 317.042058 258.044453 
L 318.457487 259.155268 
L 319.329141 258.762749 
L 319.225084 260.913342 
L 319.855281 263.944529 
L 319.480691 265.408039 
L 320.16519 266.742567 
L 319.769279 267.997928 
L 319.851577 269.702315 
L 318.895814 270.796008 
L 318.635366 271.969929 
L 317.151604 274.661182 
L 317.49366 276.603819 
L 316.801644 278.639235 
L 316.042784 280.023249 
L 315.809626 281.300698 
L 316.525607 283.788279 
L 314.472481 287.677123 
L 314.360603 290.220842 
L 313.760743 291.667626 
L 313.959279 292.651916 
L 313.307423 294.072227 
L 313.267238 295.689206 
L 312.2665 300.109998 
L 312.438235 301.118008 
L 313.572863 302.766259 
L 313.570548 303.724993 
L 314.336697 304.714679 
L 313.281632 308.380988 
L 313.63203 309.141926 
L 314.564038 309.399142 
L 315.499658 308.538177 
L 316.095705 306.709009 
L 316.261287 304.507422 
L 315.864955 301.91654 
L 317.227496 302.822345 
L 317.060442 305.811495 
L 317.665992 306.294242 
L 318.131087 307.581034 
L 317.443584 309.139839 
L 317.988334 310.976819 
L 318.160423 312.554791 
L 318.981892 313.769504 
L 319.327458 315.119696 
L 320.058405 315.734725 
L 320.609292 317.271022 
L 322.220572 317.929452 
L 323.466455 316.171302 
L 324.178622 316.239669 
L 324.765486 317.195752 
L 326.214821 317.715646 
L 326.937678 318.926377 
L 329.792821 319.699176 
L 330.940875 319.395176 
L 333.224288 322.028633 
L 334.626881 324.518656 
L 333.243472 328.346355 
L 331.327443 329.300721 
L 328.796957 329.890909 
L 326.136428 329.474307 
L 323.806027 328.204435 
L 321.236156 327.578892 
L 318.645754 327.271332 
L 317.386235 327.574936 
L 314.766077 327.366417 
L 312.654911 326.698239 
L 312.615694 325.924295 
L 313.807536 325.484428 
L 314.924806 324.607646 
L 315.401442 323.01603 
L 314.746068 320.624257 
L 313.104703 318.557342 
L 311.135475 317.070566 
L 309.953187 316.473172 
L 304.549671 314.682985 
L 302.978223 314.927002 
L 303.002642 316.44063 
L 302.225188 318.500086 
L 300.638538 318.099831 
L 299.263042 318.093745 
L 297.066556 316.970961 
L 295.350772 316.487583 
L 291.643469 315.956132 
L 290.246382 316.788679 
L 288.642349 316.949774 
L 287.850712 317.981076 
L 286.291865 317.219742 
L 286.341604 315.950046 
L 285.821794 314.266846 
L 284.238713 313.812484 
L 283.492202 314.908281 
L 282.067101 315.493108 
L 281.33974 315.285859 
L 280.599105 316.112303 
L 279.182539 314.607934 
L 280.754484 314.388943 
L 281.005774 313.403272 
L 280.45822 312.2317 
L 278.970871 311.191551 
L 277.390542 311.351863 
L 277.228471 312.479075 
L 275.982555 313.007479 
L 274.923752 311.949392 
L 272.896502 311.053899 
L 271.729424 311.28294 
L 271.47662 310.664705 
L 270.015652 310.709124 
" clip-path="url(#p33e6704735)" style="fill: #ffffff"/>
   </g>
   <g id="patch_5">
    <path d="M 111.666974 263.924218 
L 112.228914 264.655055 
L 113.36626 265.16095 
L 113.406084 263.88809 
L 116.89841 264.152485 
L 119.818536 263.237539 
L 122.939665 263.486791 
L 123.399491 263.24163 
L 123.404626 261.674239 
L 124.854087 261.728304 
L 124.902252 262.295252 
L 128.287339 262.251742 
L 130.447082 261.956732 
L 132.243338 261.168781 
L 133.493724 261.057114 
L 135.744663 260.146056 
L 136.749719 260.124869 
L 137.444589 259.51862 
L 140.459118 258.897893 
L 141.102606 258.244278 
L 145.309718 259.694825 
L 146.482393 260.59866 
L 149.31517 258.674356 
L 149.833439 258.69306 
L 152.915393 256.763066 
L 153.300075 258.096213 
L 155.23826 260.67026 
L 155.60625 261.843532 
L 154.804133 262.95247 
L 154.971103 263.800185 
L 153.515859 269.397355 
L 153.827974 269.87219 
L 153.534487 273.177798 
L 153.885769 274.12995 
L 153.381641 276.347656 
L 152.347679 276.723113 
L 151.591808 277.546097 
L 150.469865 277.634801 
L 146.578723 278.559504 
L 146.264041 279.675428 
L 147.729555 280.377519 
L 147.537542 281.655994 
L 148.39104 283.688186 
L 147.389191 284.922831 
L 147.673688 287.874978 
L 147.509284 289.104009 
L 146.5556 290.366996 
L 145.474433 293.552569 
L 144.464056 293.643774 
L 143.390481 292.241022 
L 142.195331 292.29997 
L 142.085996 292.981935 
L 139.306763 292.16996 
L 137.743302 293.56166 
L 136.937321 293.172416 
L 133.885368 293.037524 
L 134.053029 292.131046 
L 129.603963 291.170031 
L 128.317743 291.871541 
L 127.213478 290.76087 
L 126.220139 291.60042 
L 125.454444 290.746249 
L 123.564644 290.976545 
L 122.879446 290.696509 
L 120.777456 291.328373 
L 119.860986 290.912984 
L 118.166995 291.076798 
L 117.673878 290.502443 
L 118.010075 289.017872 
L 117.289515 287.857082 
L 117.874569 286.307115 
L 117.202814 284.756341 
L 117.254195 282.851389 
L 117.640165 281.197541 
L 117.229793 280.464944 
L 117.705671 278.422878 
L 120.301477 279.700874 
L 121.910846 279.980076 
L 123.206182 278.809892 
L 124.125825 277.502915 
L 125.105839 277.463016 
L 125.386481 274.915131 
L 124.588219 274.152829 
L 122.97049 273.512387 
L 122.145258 274.235674 
L 121.034234 273.638743 
L 119.096689 273.331048 
L 118.411458 272.784605 
L 115.554909 272.229501 
L 114.565914 270.819931 
L 114.843988 269.189686 
L 114.279481 268.382349 
L 113.180662 267.92919 
L 112.797907 266.562735 
L 111.765241 264.697034 
L 111.666974 263.924218 
" clip-path="url(#p33e6704735)" style="fill: #ffffff"/>
   </g>
   <g id="patch_6">
    <path d="M 131.184982 269.008498 
L 132.089213 269.917064 
L 131.497736 270.660982 
L 131.780953 271.603109 
L 130.964703 272.478189 
L 130.664794 273.512951 
L 129.351478 275.445841 
L 127.930914 274.405465 
L 126.654847 271.224605 
L 127.676595 270.938736 
L 128.961013 271.266507 
L 129.871018 269.08035 
L 131.184982 269.008498 
" clip-path="url(#p33e6704735)" style="fill: #ffffff"/>
   </g>
   <g id="patch_7">
    <path d="M 83.540172 178.844546 
L 84.563848 179.583448 
L 86.053132 180.033072 
L 86.469928 181.244156 
L 86.320289 182.22529 
L 86.700476 183.333419 
L 87.929667 184.115873 
L 89.588489 184.572601 
L 89.395828 185.36886 
L 91.147774 186.85184 
L 93.706972 187.101294 
L 94.537348 187.872393 
L 95.72094 187.057826 
L 97.985372 186.927943 
L 100.234384 187.360513 
L 103.030561 189.64806 
L 103.811483 190.817603 
L 105.135716 191.168843 
L 106.631424 190.979675 
L 107.971069 191.606833 
L 109.513014 191.254222 
L 109.421179 193.011867 
L 110.468617 193.042692 
L 111.194952 191.234314 
L 114.107376 191.778863 
L 115.097659 190.308846 
L 116.143179 187.952747 
L 117.040978 187.333652 
L 116.588863 186.074007 
L 117.252267 185.716177 
L 118.225859 186.51592 
L 119.286782 186.547234 
L 121.95966 185.576858 
L 122.50553 187.222271 
L 125.019139 187.572719 
L 125.611255 189.125582 
L 126.549518 188.298254 
L 128.304679 189.289421 
L 128.977713 189.429986 
L 128.885878 191.451294 
L 128.065772 192.601696 
L 127.099251 193.273686 
L 126.580991 194.809848 
L 125.924009 195.461569 
L 125.283728 197.80069 
L 124.50023 198.749475 
L 122.836912 199.205682 
L 122.395714 201.870411 
L 123.044346 202.466576 
L 122.87352 205.110918 
L 121.993692 206.413307 
L 121.404143 208.071978 
L 122.745716 210.144465 
L 122.815717 211.037972 
L 122.158743 212.221926 
L 121.128636 213.439156 
L 119.399813 213.221924 
L 118.272736 213.844991 
L 117.331897 213.3195 
L 117.009513 214.328975 
L 115.18436 213.975118 
L 113.925632 214.314809 
L 112.876897 214.109538 
L 111.762665 214.811512 
L 111.808911 216.185602 
L 110.275956 217.067594 
L 107.3295 216.495309 
L 104.687456 217.139522 
L 103.593772 216.715504 
L 102.627251 216.983705 
L 100.228601 217.019908 
L 99.712908 217.956454 
L 98.495922 218.833345 
L 95.974612 219.552339 
L 93.184217 217.975234 
L 91.449611 217.327932 
L 88.742062 215.08903 
L 87.620768 214.493623 
L 86.231029 213.616968 
L 84.211918 212.826694 
L 82.996221 211.956336 
L 81.372718 210.259339 
L 79.514164 209.360572 
L 77.402578 210.443936 
L 77.154049 211.099108 
L 75.190174 211.29246 
L 74.348242 210.567161 
L 70.859123 210.105736 
L 70.002914 210.491959 
L 69.534267 209.628166 
L 68.483949 210.338885 
L 68.67427 208.370768 
L 69.662954 207.265063 
L 68.789506 206.403922 
L 67.045145 206.351623 
L 68.364765 204.188496 
L 68.542098 202.64555 
L 69.552819 201.849611 
L 70.645283 202.063779 
L 72.086891 200.614739 
L 73.517412 200.885296 
L 74.980897 200.068237 
L 75.775632 199.057642 
L 76.823231 198.883828 
L 76.864772 197.979816 
L 78.575707 196.124688 
L 80.4781 195.65115 
L 80.290254 194.41105 
L 81.514066 193.118012 
L 81.535766 192.24847 
L 82.520343 191.970127 
L 82.293001 190.814186 
L 82.999428 188.814309 
L 82.680899 186.94099 
L 83.798978 186.150994 
L 84.065495 185.048757 
L 83.081634 183.999071 
L 82.720066 180.924701 
L 83.540172 178.844546 
" clip-path="url(#p33e6704735)" style="fill: #ffffff"/>
   </g>
   <g id="patch_8">
    <path d="M 251.978629 260.95128 
L 253.101859 259.952251 
L 255.092064 258.965536 
L 255.27316 257.595621 
L 255.948122 257.484282 
L 257.425201 256.09871 
L 258.382092 255.723539 
L 258.965866 254.587792 
L 260.284956 254.012814 
L 261.232857 250.028313 
L 261.216805 248.17193 
L 262.38113 247.045013 
L 264.321242 247.052842 
L 266.259426 247.597154 
L 267.576597 248.464255 
L 269.916804 248.396578 
L 270.979656 246.988296 
L 274.953643 247.215679 
L 276.652281 246.729043 
L 278.329092 246.664422 
L 278.235328 245.377032 
L 279.509469 244.43387 
L 280.880588 245.189666 
L 282.723721 245.76456 
L 284.07686 244.206849 
L 287.370743 243.858446 
L 289.644165 244.116932 
L 290.432789 246.985358 
L 291.110326 247.83809 
L 291.152709 249.403192 
L 291.668402 250.704226 
L 291.383905 252.603522 
L 291.579134 254.165046 
L 292.984293 256.530539 
L 293.225111 259.386279 
L 294.758706 263.213683 
L 297.640297 261.7079 
L 298.519485 261.628506 
L 301.466581 262.323939 
L 302.53136 263.072992 
L 303.718799 264.776613 
L 303.494674 266.803426 
L 304.530555 267.845966 
L 304.429729 268.762958 
L 303.103569 270.123799 
L 302.117132 270.497084 
L 301.59952 272.614613 
L 300.151338 272.885136 
L 299.108386 274.378276 
L 297.985164 273.298968 
L 295.031645 272.858335 
L 294.48256 273.43503 
L 291.369781 273.972811 
L 290.497015 274.764086 
L 288.733512 274.500785 
L 287.291752 275.45888 
L 286.131923 273.843248 
L 286.024035 272.201841 
L 284.79806 271.288376 
L 283.712725 270.02395 
L 282.56702 269.831609 
L 281.138754 268.821493 
L 280.352689 268.90258 
L 277.656697 267.103352 
L 276.815404 266.317691 
L 274.08666 265.246086 
L 273.483626 267.011197 
L 272.514538 267.21108 
L 271.130574 266.475116 
L 271.38938 268.011918 
L 269.336885 268.22569 
L 267.854671 268.084166 
L 267.300442 268.9363 
L 265.634558 268.566147 
L 264.453532 267.423017 
L 262.921865 268.564623 
L 261.737633 268.142129 
L 260.598998 266.179946 
L 259.246507 265.138282 
L 257.32052 265.164856 
L 256.048947 263.105088 
L 255.941059 261.525054 
L 253.643698 261.933322 
L 251.978629 260.95128 
" clip-path="url(#p33e6704735)" style="fill: #ffffff"/>
   </g>
   <g id="patch_9">
    <path d="M 146.294227 207.354466 
L 149.048014 206.461515 
L 149.819306 205.607141 
L 149.398655 204.897457 
L 149.975367 203.046007 
L 148.903518 202.435187 
L 149.584902 200.811246 
L 152.338689 198.368522 
L 153.810634 197.403963 
L 155.066794 197.594216 
L 155.628085 196.675499 
L 157.513609 196.212744 
L 158.149396 194.527633 
L 157.822441 193.75762 
L 156.299192 194.008564 
L 155.052661 193.451246 
L 154.985876 192.197737 
L 155.371198 190.595228 
L 156.335151 190.863875 
L 157.026814 190.240487 
L 157.488559 189.009175 
L 158.997111 189.105944 
L 160.406117 188.074843 
L 160.051612 186.937648 
L 160.786305 186.31033 
L 161.184472 184.987822 
L 159.464639 183.322333 
L 158.562976 183.487098 
L 157.24902 182.629274 
L 158.396645 181.111336 
L 155.732766 180.271045 
L 154.048892 180.724726 
L 153.457416 180.138022 
L 151.236023 180.186953 
L 150.789682 179.681252 
L 148.112958 178.826718 
L 147.595985 179.064935 
L 146.199816 178.145494 
L 146.919735 176.198479 
L 148.206081 176.661554 
L 149.544439 176.460736 
L 149.995275 175.423609 
L 150.941888 175.542987 
L 151.374736 174.086413 
L 150.796744 172.624267 
L 152.129976 171.53974 
L 153.054114 170.310987 
L 152.326383 169.455419 
L 152.961588 169.484821 
L 154.476774 170.860629 
L 157.727247 172.171983 
L 159.05047 172.084853 
L 160.697272 170.270516 
L 160.679082 169.480057 
L 159.255362 168.873454 
L 160.778872 168.279764 
L 160.79867 167.031095 
L 161.317663 166.178329 
L 163.69771 168.365842 
L 164.145651 170.116028 
L 165.190682 170.921504 
L 166.466699 169.568862 
L 167.466764 172.760101 
L 166.296791 173.619651 
L 165.303048 173.825646 
L 165.540903 175.927644 
L 167.07528 179.090162 
L 168.288452 180.565827 
L 169.238744 180.84593 
L 170.048959 181.719731 
L 169.613645 182.798407 
L 170.259979 183.534994 
L 169.804606 185.024616 
L 168.909323 186.118182 
L 168.69619 188.275358 
L 167.690915 189.356618 
L 167.952449 190.865718 
L 168.421349 191.381883 
L 169.826879 190.806997 
L 170.140769 192.099673 
L 171.375398 193.439563 
L 171.471543 195.334422 
L 171.201727 196.210841 
L 169.149425 196.217559 
L 166.616153 197.509965 
L 165.842529 197.065669 
L 165.624658 199.260084 
L 167.025154 200.912771 
L 167.246982 201.700368 
L 168.563656 202.183376 
L 168.171659 204.041029 
L 168.276188 206.250773 
L 169.942974 206.500934 
L 170.084919 207.074304 
L 170.049876 207.328211 
L 170.127528 207.544139 
L 170.260063 207.562952 
L 171.347148 208.945232 
L 171.346517 208.986554 
L 171.236592 209.602854 
L 170.360989 210.230551 
L 168.237206 211.003493 
L 167.336831 210.85888 
L 165.187997 211.35847 
L 162.918438 213.528213 
L 161.083647 214.086937 
L 159.492897 213.457977 
L 157.924622 214.268361 
L 156.990845 214.3722 
L 155.328816 212.413661 
L 155.227342 211.231559 
L 155.877262 209.396885 
L 155.700653 205.901385 
L 154.52669 206.341177 
L 152.694474 205.695315 
L 152.146668 206.405117 
L 149.714625 206.475084 
L 148.355712 208.009082 
L 146.294227 207.354466 
" clip-path="url(#p33e6704735)" style="fill: #ffffff"/>
   </g>
   <g id="patch_11">
    <path d="M 225.049173 289.993652 
L 225.520279 289.355172 
L 226.382767 286.550088 
L 225.833041 283.447335 
L 227.011491 282.788509 
L 227.534895 281.728066 
L 228.456457 281.68921 
L 230.43896 279.775428 
L 230.341342 278.329654 
L 231.423461 277.430246 
L 230.80823 276.285829 
L 231.169149 275.588788 
L 230.413909 274.317543 
L 229.963082 272.700615 
L 230.30731 271.355674 
L 229.524451 270.765242 
L 228.820592 268.81662 
L 229.412069 267.248269 
L 230.031155 266.525781 
L 232.061823 265.345244 
L 232.437515 263.980346 
L 233.668625 264.960638 
L 235.277355 265.137247 
L 235.870119 265.922748 
L 238.045923 266.272666 
L 239.23593 266.046772 
L 240.653286 263.918932 
L 241.29999 264.613683 
L 242.750739 265.353266 
L 243.908642 265.259343 
L 245.981692 264.045085 
L 246.584078 263.128893 
L 249.081626 262.964768 
L 250.312744 262.564269 
L 251.321656 263.298238 
L 252.307444 262.167583 
L 253.643698 261.933322 
L 255.941059 261.525054 
L 256.048947 263.105088 
L 257.32052 265.164856 
L 259.246507 265.138282 
L 260.598998 266.179946 
L 261.737633 268.142129 
L 262.921865 268.564623 
L 264.453532 267.423017 
L 265.634558 268.566147 
L 267.300442 268.9363 
L 267.854671 268.084166 
L 269.336885 268.22569 
L 271.38938 268.011918 
L 271.130574 266.475116 
L 272.514538 267.21108 
L 273.483626 267.011197 
L 274.08666 265.246086 
L 276.815404 266.317691 
L 277.656697 267.103352 
L 280.352689 268.90258 
L 281.138754 268.821493 
L 282.56702 269.831609 
L 283.712725 270.02395 
L 284.79806 271.288376 
L 286.024035 272.201841 
L 286.131923 273.843248 
L 287.291752 275.45888 
L 285.661827 276.009573 
L 284.004284 277.84774 
L 282.879783 279.567413 
L 281.183064 280.149816 
L 280.250584 281.363266 
L 280.947373 282.88032 
L 280.227461 284.672165 
L 278.953321 284.775406 
L 278.11138 285.703551 
L 278.034317 288.055484 
L 277.002291 290.206961 
L 277.492934 291.800682 
L 276.336319 292.855831 
L 277.524407 296.173721 
L 278.973868 297.662921 
L 278.149276 299.749937 
L 276.091638 301.390628 
L 275.164932 300.756205 
L 275.31585 300.103078 
L 274.568321 298.78382 
L 273.195274 299.192265 
L 271.293058 300.608738 
L 270.358642 305.805493 
L 270.626438 306.852772 
L 271.477369 307.577263 
L 270.015652 310.709124 
L 270.037015 309.140496 
L 267.869958 310.116478 
L 267.594737 309.119182 
L 267.673391 306.079426 
L 266.04174 305.285659 
L 263.624192 307.442767 
L 261.481108 308.478514 
L 261.079111 307.530604 
L 259.962639 307.99697 
L 260.270621 306.011168 
L 259.922505 305.067585 
L 257.225991 305.60593 
L 255.853626 306.133778 
L 253.959381 305.855165 
L 254.024634 304.522127 
L 253.164116 304.195299 
L 253.65544 303.224224 
L 253.256843 302.465112 
L 249.977279 300.879228 
L 248.595226 301.318708 
L 248.419695 300.581566 
L 247.210058 299.968372 
L 245.700075 300.416775 
L 243.79258 300.392752 
L 241.105301 298.959595 
L 240.345894 299.198267 
L 239.433027 297.734454 
L 239.523591 296.679902 
L 237.894567 296.076725 
L 235.271117 296.228932 
L 232.577003 297.864101 
L 231.991578 297.819774 
L 230.870722 295.25353 
L 229.767062 293.672217 
L 227.238142 291.150737 
L 225.049173 289.993652 
" clip-path="url(#p33e6704735)" style="fill: #ffffff"/>
   </g>
   <g id="patch_12">
    <path d="M 232.808452 305.787901 
L 230.245323 306.376178 
L 228.256069 306.307912 
L 225.833344 306.901712 
L 224.343689 306.794607 
L 223.362076 306.094611 
L 222.119283 306.050133 
L 221.714735 305.203023 
L 222.081017 303.598528 
L 223.708265 303.022102 
L 224.232696 302.066137 
L 227.017863 302.287443 
L 228.357315 302.75088 
L 229.220889 301.971027 
L 230.806403 302.765914 
L 232.94836 302.496594 
L 234.245867 303.710936 
L 233.76621 305.684684 
L 232.808452 305.787901 
" clip-path="url(#p33e6704735)" style="fill: #ffffff"/>
   </g>
   <g id="patch_13">
    <path d="M 121.128636 213.439156 
L 122.158743 212.221926 
L 123.459853 212.407803 
L 126.892457 210.990657 
L 127.954029 210.935665 
L 129.812583 210.121544 
L 132.134811 209.749547 
L 133.078217 209.366464 
L 134.425564 209.517744 
L 136.339995 210.589274 
L 138.483037 210.062217 
L 140.827748 209.861972 
L 142.648406 209.056041 
L 142.975555 209.555674 
L 144.398425 209.064669 
L 143.66374 210.436066 
L 143.613647 211.871924 
L 144.496683 213.35663 
L 144.318146 216.400452 
L 143.31245 218.101825 
L 144.015022 218.705339 
L 145.447791 218.538806 
L 148.860487 218.552535 
L 147.65378 220.307537 
L 146.583858 221.180252 
L 147.105974 222.301269 
L 146.515146 222.972981 
L 146.761107 224.250127 
L 145.912112 226.538759 
L 146.85359 227.416584 
L 147.101479 229.6827 
L 148.11938 231.342886 
L 149.293983 232.449012 
L 149.808388 234.311977 
L 149.949029 236.7154 
L 151.515376 238.921431 
L 152.214749 241.709696 
L 152.961639 242.408581 
L 152.904475 243.921822 
L 153.666138 245.60397 
L 150.83528 244.577878 
L 148.662692 245.319027 
L 146.885695 244.327818 
L 145.700183 244.090964 
L 144.621911 243.043441 
L 142.060785 242.086559 
L 141.424999 241.534855 
L 137.811931 240.845045 
L 136.384305 241.038708 
L 133.973449 238.2337 
L 133.653632 236.985688 
L 132.498298 235.444997 
L 130.709104 234.014635 
L 130.737362 233.386635 
L 129.186427 231.636457 
L 126.99521 231.496532 
L 124.522065 230.629557 
L 124.985746 229.009986 
L 124.668488 227.721956 
L 125.338955 226.570754 
L 126.769157 224.986991 
L 127.988709 224.569876 
L 128.098525 222.622213 
L 129.470923 221.410489 
L 128.500547 219.210881 
L 126.065937 218.570759 
L 123.715453 218.981292 
L 121.98599 219.884479 
L 121.74066 218.631652 
L 122.105435 218.085209 
L 121.134419 216.631009 
L 120.569273 215.145908 
L 121.321297 214.20884 
L 121.128636 213.439156 
" clip-path="url(#p33e6704735)" style="fill: #ffffff"/>
   </g>
   <g id="patch_14">
    <path d="M 98.393818 250.438677 
L 99.579969 249.26761 
L 99.642907 248.454575 
L 100.574756 248.294751 
L 103.697173 245.3863 
L 105.179387 244.410267 
L 106.83757 242.408143 
L 109.217592 240.860862 
L 109.527787 239.793187 
L 111.445416 237.222987 
L 113.573694 237.521171 
L 113.869117 237.857612 
L 113.798468 239.820359 
L 114.296821 240.952057 
L 115.141329 241.55802 
L 115.484909 243.349218 
L 116.997956 244.260713 
L 117.030709 242.523944 
L 117.661992 241.073228 
L 120.268076 240.922916 
L 121.61672 239.246467 
L 121.682225 237.154872 
L 122.296177 236.524145 
L 122.491405 235.419904 
L 123.447008 234.4417 
L 123.813711 233.486341 
L 123.973619 231.322575 
L 124.522065 230.629557 
L 126.99521 231.496532 
L 129.186427 231.636457 
L 130.737362 233.386635 
L 130.709104 234.014635 
L 132.498298 235.444997 
L 133.653632 236.985688 
L 133.973449 238.2337 
L 136.384305 241.038708 
L 137.811931 240.845045 
L 141.424999 241.534855 
L 142.060785 242.086559 
L 144.621911 243.043441 
L 145.700183 244.090964 
L 146.885695 244.327818 
L 148.662692 245.319027 
L 150.83528 244.577878 
L 150.491061 245.196248 
L 148.749384 246.129175 
L 147.468181 246.103206 
L 145.97505 244.605816 
L 144.674571 244.093296 
L 143.352905 245.317268 
L 142.223261 245.493228 
L 139.911311 244.734335 
L 139.540114 245.599315 
L 141.110956 247.322321 
L 140.992791 248.389188 
L 141.347288 250.657711 
L 142.336931 252.033922 
L 142.712624 253.366186 
L 142.515468 255.071886 
L 141.554722 256.175402 
L 141.728123 257.309542 
L 141.102606 258.244278 
L 140.459118 258.897893 
L 137.444589 259.51862 
L 136.749719 260.124869 
L 135.744663 260.146056 
L 133.493724 261.057114 
L 132.243338 261.168781 
L 130.447082 261.956732 
L 128.287339 262.251742 
L 124.902252 262.295252 
L 124.854087 261.728304 
L 123.404626 261.674239 
L 123.399491 263.24163 
L 122.939665 263.486791 
L 119.818536 263.237539 
L 116.89841 264.152485 
L 113.406084 263.88809 
L 113.36626 265.16095 
L 112.228914 264.655055 
L 111.666974 263.924218 
L 110.840455 261.764071 
L 110.649081 260.256326 
L 109.506592 261.022442 
L 108.295381 260.925101 
L 105.434346 259.749699 
L 105.093334 258.692942 
L 103.766525 256.422904 
L 102.774962 255.850291 
L 101.017873 253.878832 
L 98.689232 252.888262 
L 98.222983 251.392605 
L 98.393818 250.438677 
" clip-path="url(#p33e6704735)" style="fill: #ffffff"/>
   </g>
   <g id="patch_15">
    <path d="M 115.26463 244.982678 
L 116.211243 245.052594 
L 115.507384 246.482114 
L 116.443088 246.535372 
L 116.732079 247.376109 
L 117.992735 247.452608 
L 118.088425 248.945302 
L 119.996425 250.257978 
L 120.993131 250.42989 
L 120.814603 252.274909 
L 119.401741 253.461557 
L 117.137309 252.675971 
L 116.611986 252.064832 
L 114.951236 251.738306 
L 115.979415 250.736305 
L 113.968015 250.541313 
L 113.942324 249.723463 
L 111.768448 249.284992 
L 111.474313 248.058091 
L 112.561576 247.000291 
L 113.465167 246.879878 
L 113.906364 245.755536 
L 115.26463 244.982678 
" clip-path="url(#p33e6704735)" style="fill: #ffffff"/>
   </g>
   <g id="patch_16">
    <path d="M 122.158743 212.221926 
L 122.815717 211.037972 
L 122.745716 210.144465 
L 121.404143 208.071978 
L 121.993692 206.413307 
L 122.87352 205.110918 
L 123.044346 202.466576 
L 122.395714 201.870411 
L 122.836912 199.205682 
L 124.50023 198.749475 
L 125.283728 197.80069 
L 125.924009 195.461569 
L 126.580991 194.809848 
L 127.099251 193.273686 
L 128.065772 192.601696 
L 128.885878 191.451294 
L 128.977713 189.429986 
L 128.304679 189.289421 
L 129.374601 188.222673 
L 130.237729 188.32221 
L 130.747639 187.530817 
L 133.714643 185.801026 
L 133.415374 184.626145 
L 133.70051 183.044663 
L 132.80335 182.908475 
L 133.341518 180.798101 
L 132.301142 175.361639 
L 132.383987 173.142931 
L 132.033977 172.684999 
L 130.513236 172.519552 
L 129.658239 171.359007 
L 129.991457 171.083189 
L 133.374018 169.950371 
L 134.110571 169.295047 
L 135.864731 169.251697 
L 136.107712 169.769444 
L 138.002698 169.789486 
L 139.252899 169.033143 
L 140.528975 169.396058 
L 143.305001 168.53825 
L 144.05865 169.052512 
L 145.399138 168.577998 
L 146.541072 169.348692 
L 147.963496 169.576648 
L 149.100926 169.312665 
L 150.168155 168.594673 
L 151.153851 168.696147 
L 152.326383 169.455419 
L 153.054114 170.310987 
L 152.129976 171.53974 
L 150.796744 172.624267 
L 151.374736 174.086413 
L 150.941888 175.542987 
L 149.995275 175.423609 
L 149.544439 176.460736 
L 148.206081 176.661554 
L 146.919735 176.198479 
L 146.199816 178.145494 
L 147.595985 179.064935 
L 148.112958 178.826718 
L 150.789682 179.681252 
L 151.236023 180.186953 
L 153.457416 180.138022 
L 154.048892 180.724726 
L 155.732766 180.271045 
L 158.396645 181.111336 
L 157.24902 182.629274 
L 158.562976 183.487098 
L 159.464639 183.322333 
L 161.184472 184.987822 
L 160.786305 186.31033 
L 160.051612 186.937648 
L 160.406117 188.074843 
L 158.997111 189.105944 
L 157.488559 189.009175 
L 157.026814 190.240487 
L 156.335151 190.863875 
L 155.371198 190.595228 
L 154.985876 192.197737 
L 155.052661 193.451246 
L 156.299192 194.008564 
L 157.822441 193.75762 
L 158.149396 194.527633 
L 157.513609 196.212744 
L 155.628085 196.675499 
L 155.066794 197.594216 
L 153.810634 197.403963 
L 152.338689 198.368522 
L 149.584902 200.811246 
L 148.903518 202.435187 
L 149.975367 203.046007 
L 149.398655 204.897457 
L 149.819306 205.607141 
L 149.048014 206.461515 
L 146.294227 207.354466 
L 144.398425 209.064669 
L 142.975555 209.555674 
L 142.648406 209.056041 
L 140.827748 209.861972 
L 138.483037 210.062217 
L 136.339995 210.589274 
L 134.425564 209.517744 
L 133.078217 209.366464 
L 132.134811 209.749547 
L 129.812583 210.121544 
L 127.954029 210.935665 
L 126.892457 210.990657 
L 123.459853 212.407803 
L 122.158743 212.221926 
" clip-path="url(#p33e6704735)" style="fill: #ffffff"/>
   </g>
   <g id="patch_17">
    <path d="M 194.606288 262.794716 
L 196.00245 262.98694 
L 197.480817 262.466869 
L 198.968174 260.962862 
L 201.334063 261.602538 
L 203.048761 263.227724 
L 204.003724 264.975419 
L 204.812913 264.311291 
L 204.755757 263.264694 
L 205.412091 262.644042 
L 208.309094 262.628949 
L 209.128552 263.499981 
L 210.92224 262.22239 
L 212.180328 262.359697 
L 215.536509 259.564689 
L 217.312218 256.694134 
L 216.939733 255.613539 
L 220.363347 256.440421 
L 221.984282 255.884146 
L 222.03951 257.276537 
L 222.641264 258.286728 
L 225.422029 258.008611 
L 226.638366 258.140262 
L 228.508478 260.497574 
L 228.638849 262.106665 
L 229.478214 262.826577 
L 229.902071 263.871776 
L 230.031155 266.525781 
L 229.412069 267.248269 
L 228.820592 268.81662 
L 229.524451 270.765242 
L 230.30731 271.355674 
L 229.963082 272.700615 
L 230.413909 274.317543 
L 231.169149 275.588788 
L 230.80823 276.285829 
L 231.423461 277.430246 
L 230.341342 278.329654 
L 230.43896 279.775428 
L 228.456457 281.68921 
L 227.534895 281.728066 
L 227.011491 282.788509 
L 225.833041 283.447335 
L 226.382767 286.550088 
L 225.520279 289.355172 
L 225.049173 289.993652 
L 222.65916 288.864066 
L 220.934714 288.328684 
L 217.382269 287.869498 
L 213.375916 288.061343 
L 209.887327 288.741969 
L 207.151529 288.419804 
L 205.911092 288.473508 
L 205.056996 289.227713 
L 204.099482 289.291215 
L 200.152095 290.454664 
L 198.157108 291.372776 
L 197.184662 292.093234 
L 195.908434 293.807891 
L 193.921697 291.997956 
L 194.624916 290.919364 
L 193.862614 290.182348 
L 192.306544 289.581722 
L 192.609661 288.015055 
L 191.99507 286.913508 
L 192.977651 284.380556 
L 192.136358 282.66377 
L 192.177453 281.613115 
L 191.345159 278.869522 
L 191.364418 277.168957 
L 192.466453 275.544486 
L 193.186364 273.577564 
L 193.003341 271.515515 
L 191.544242 271.061068 
L 191.079921 269.24057 
L 191.765161 267.768146 
L 193.977564 265.774565 
L 193.239673 264.403454 
L 194.108575 264.219699 
L 194.606288 262.794716 
" clip-path="url(#p33e6704735)" style="fill: #ffffff"/>
   </g>
   <g id="patch_18">
    <path d="M 68.992218 245.552715 
L 69.191941 243.393014 
L 69.722407 241.078455 
L 70.748019 240.002069 
L 73.279599 238.247236 
L 73.123546 236.691444 
L 74.132458 235.524669 
L 75.399536 235.930791 
L 76.736614 235.526117 
L 77.862403 233.086482 
L 77.66268 232.085727 
L 78.287549 230.584077 
L 77.653682 230.091987 
L 76.473305 230.69699 
L 75.019988 230.302114 
L 74.239706 231.232431 
L 73.384289 231.13493 
L 73.124826 232.704333 
L 74.134385 233.481526 
L 74.193468 234.644126 
L 73.290517 235.494408 
L 72.411977 235.407548 
L 72.139685 234.022582 
L 70.16746 233.469767 
L 69.7192 232.62988 
L 70.547648 231.78698 
L 71.297745 229.922482 
L 71.468579 228.624579 
L 72.306656 227.400936 
L 73.179414 227.528975 
L 74.179335 225.333904 
L 76.254953 225.884437 
L 77.609372 224.645095 
L 79.108286 224.137954 
L 81.269965 221.913059 
L 82.52291 219.492338 
L 83.540811 219.532111 
L 84.767426 218.945576 
L 85.913131 216.971423 
L 87.484614 215.274149 
L 87.620768 214.493623 
L 88.742062 215.08903 
L 91.449611 217.327932 
L 93.184217 217.975234 
L 95.974612 219.552339 
L 98.495922 218.833345 
L 99.98264 219.849403 
L 100.292827 221.513082 
L 102.038342 221.92109 
L 102.397342 222.497229 
L 101.58238 224.700727 
L 101.716597 225.616195 
L 99.965939 226.191535 
L 98.81446 225.936138 
L 98.011054 228.266993 
L 97.806188 230.200043 
L 97.33738 230.723438 
L 97.024626 234.770961 
L 95.768466 236.067779 
L 94.768544 237.588848 
L 94.47377 239.403488 
L 92.816227 241.157 
L 92.554853 243.537628 
L 92.186223 244.916053 
L 92.409718 245.619104 
L 94.436522 247.445908 
L 92.805309 247.467179 
L 91.947324 248.416444 
L 90.927495 248.546133 
L 89.467116 248.040027 
L 89.25326 246.633353 
L 88.03242 246.051674 
L 88.182698 245.20906 
L 86.528362 244.58579 
L 86.065977 245.083824 
L 81.69639 245.888357 
L 80.955275 246.977816 
L 79.68499 247.744739 
L 77.439186 247.334005 
L 75.979447 247.676625 
L 73.099144 246.941132 
L 70.385172 245.431182 
L 68.992218 245.552715 
" clip-path="url(#p33e6704735)" style="fill: #ffffff"/>
   </g>
   <g id="patch_19">
    <path d="M 47.492137 232.244002 
L 47.879614 231.903378 
L 50.580101 231.373913 
L 52.879844 230.397443 
L 54.304263 230.812025 
L 55.891806 230.706906 
L 56.499975 229.416065 
L 57.946877 229.364525 
L 60.951768 228.034677 
L 62.636281 228.241185 
L 62.122515 226.488237 
L 62.600321 225.433164 
L 66.604485 225.175115 
L 67.425231 224.736291 
L 67.808625 223.835394 
L 69.990212 222.887812 
L 71.287475 223.444045 
L 73.370156 223.31332 
L 74.123468 224.265228 
L 74.179335 225.333904 
L 73.179414 227.528975 
L 72.306656 227.400936 
L 71.468579 228.624579 
L 71.297745 229.922482 
L 70.547648 231.78698 
L 69.7192 232.62988 
L 70.16746 233.469767 
L 72.139685 234.022582 
L 72.411977 235.407548 
L 73.290517 235.494408 
L 74.193468 234.644126 
L 74.132458 235.524669 
L 73.123546 236.691444 
L 73.279599 238.247236 
L 70.748019 240.002069 
L 69.722407 241.078455 
L 69.191941 243.393014 
L 68.992218 245.552715 
L 68.478452 245.716201 
L 65.918606 245.331636 
L 65.573747 245.641503 
L 61.605534 246.091094 
L 59.905609 245.986893 
L 58.8845 247.360411 
L 57.612279 246.701914 
L 57.019523 247.16759 
L 55.525104 246.856645 
L 54.963173 245.837296 
L 55.830796 244.049794 
L 55.26437 242.560509 
L 54.230408 241.881936 
L 53.597189 242.586924 
L 51.219094 243.224276 
L 49.279622 242.125137 
L 49.122929 240.876198 
L 48.079337 240.725036 
L 47.252177 239.996488 
L 46.442989 239.984047 
L 46.534825 238.18322 
L 47.164189 236.928979 
L 46.906662 235.567094 
L 47.106394 233.540003 
L 47.492137 232.244002 
" clip-path="url(#p33e6704735)" style="fill: #ffffff"/>
   </g>
   <g id="patch_20">
    <path d="M 141.102606 258.244278 
L 141.728123 257.309542 
L 141.554722 256.175402 
L 142.515468 255.071886 
L 142.712624 253.366186 
L 142.336931 252.033922 
L 141.347288 250.657711 
L 140.992791 248.389188 
L 141.110956 247.322321 
L 139.540114 245.599315 
L 139.911311 244.734335 
L 142.223261 245.493228 
L 143.352905 245.317268 
L 144.674571 244.093296 
L 145.97505 244.605816 
L 147.468181 246.103206 
L 148.749384 246.129175 
L 150.491061 245.196248 
L 150.83528 244.577878 
L 153.666138 245.60397 
L 154.416235 244.674293 
L 155.568118 244.63819 
L 156.313964 246.09835 
L 156.376254 247.618653 
L 156.997268 248.439121 
L 156.948463 252.0633 
L 156.386532 252.853296 
L 156.401945 254.130012 
L 155.330095 256.03621 
L 155.189455 258.51284 
L 156.135428 258.528412 
L 158.644533 257.47881 
L 159.932807 257.525368 
L 163.102109 256.882233 
L 163.768721 257.21827 
L 165.380018 255.959416 
L 164.396157 254.82058 
L 163.614587 254.904755 
L 162.797697 254.050255 
L 163.267792 248.766117 
L 163.831659 247.20812 
L 164.678086 245.928121 
L 164.811665 244.452886 
L 165.972134 244.770581 
L 167.162149 246.317055 
L 169.181252 247.02184 
L 170.403372 247.14828 
L 170.969806 247.857838 
L 174.185986 248.539904 
L 175.474899 249.110581 
L 176.833173 248.952162 
L 177.301341 250.190856 
L 178.42777 251.665006 
L 179.022453 251.838122 
L 179.835497 253.081159 
L 180.329994 253.014854 
L 180.989544 255.119933 
L 181.967622 256.830372 
L 183.092131 257.921086 
L 184.385539 258.11772 
L 185.653266 259.23191 
L 187.367956 259.117515 
L 189.799358 260.197589 
L 190.723497 259.766711 
L 194.027017 260.508457 
L 193.425271 261.552647 
L 194.606288 262.794716 
L 194.108575 264.219699 
L 193.239673 264.403454 
L 193.977564 265.774565 
L 191.765161 267.768146 
L 191.079921 269.24057 
L 191.544242 271.061068 
L 193.003341 271.515515 
L 193.186364 273.577564 
L 192.466453 275.544486 
L 191.364418 277.168957 
L 191.345159 278.869522 
L 192.177453 281.613115 
L 192.136358 282.66377 
L 192.977651 284.380556 
L 191.99507 286.913508 
L 192.609661 288.015055 
L 192.306544 289.581722 
L 193.862614 290.182348 
L 194.624916 290.919364 
L 193.921697 291.997956 
L 195.908434 293.807891 
L 195.030601 294.467937 
L 194.320007 296.33985 
L 192.52535 297.369898 
L 190.502384 297.125923 
L 190.905712 298.045036 
L 188.77107 298.662674 
L 187.669363 297.999674 
L 186.305517 297.913024 
L 186.513372 296.734667 
L 185.271681 295.243572 
L 184.336953 295.594576 
L 184.274487 297.168205 
L 182.543004 298.251123 
L 181.518292 297.617357 
L 181.228493 296.790408 
L 180.134783 296.783287 
L 179.712238 298.564778 
L 178.007607 299.313007 
L 175.089459 299.329993 
L 173.452598 300.23547 
L 171.81221 301.609358 
L 170.138598 301.902441 
L 169.168297 300.799909 
L 166.668317 299.663463 
L 164.79254 299.372552 
L 163.479948 298.486108 
L 161.977187 298.043563 
L 159.799245 298.054784 
L 158.752994 297.508013 
L 157.883982 298.177183 
L 156.573478 297.989405 
L 155.71365 297.454191 
L 152.651688 297.652761 
L 150.952031 296.431315 
L 146.663539 295.761328 
L 145.95909 293.822596 
L 145.474433 293.552569 
L 146.5556 290.366996 
L 147.509284 289.104009 
L 147.673688 287.874978 
L 147.389191 284.922831 
L 148.39104 283.688186 
L 147.537542 281.655994 
L 147.729555 280.377519 
L 146.264041 279.675428 
L 146.578723 278.559504 
L 150.469865 277.634801 
L 151.591808 277.546097 
L 152.347679 276.723113 
L 153.381641 276.347656 
L 153.885769 274.12995 
L 153.534487 273.177798 
L 153.827974 269.87219 
L 153.515859 269.397355 
L 154.971103 263.800185 
L 154.804133 262.95247 
L 155.60625 261.843532 
L 155.23826 260.67026 
L 153.300075 258.096213 
L 152.915393 256.763066 
L 149.833439 258.69306 
L 149.31517 258.674356 
L 146.482393 260.59866 
L 145.309718 259.694825 
L 141.102606 258.244278 
" clip-path="url(#p33e6704735)" style="fill: #ffffff"/>
   </g>
   <g id="patch_21">
    <path d="M 163.676246 259.290757 
L 164.990201 258.843818 
L 166.01067 257.600385 
L 166.576456 257.792886 
L 167.807566 257.139078 
L 168.878127 257.58621 
L 169.330243 256.959136 
L 170.710352 257.86553 
L 171.293478 258.878776 
L 170.874755 261.294043 
L 173.774325 262.65432 
L 172.986341 264.510467 
L 171.865687 264.963786 
L 172.08339 266.781953 
L 170.640351 268.018534 
L 168.481248 268.058189 
L 168.405465 267.144884 
L 166.510311 265.614741 
L 165.070479 263.025484 
L 165.302316 262.011033 
L 166.044702 261.476838 
L 165.157172 260.124861 
L 163.676246 259.290757 
" clip-path="url(#p33e6704735)" style="fill: #ffffff"/>
   </g>
   <g id="patch_22">
    <path d="M 175.210016 301.979907 
L 174.396189 303.178071 
L 172.530278 301.316856 
L 173.519871 300.462828 
L 175.303063 300.794707 
L 175.210016 301.979907 
" clip-path="url(#p33e6704735)" style="fill: #ffffff"/>
   </g>
   <g id="patch_23">
    <path d="M 144.398425 209.064669 
L 146.294227 207.354466 
L 148.355712 208.009082 
L 149.714625 206.475084 
L 152.146668 206.405117 
L 152.694474 205.695315 
L 154.52669 206.341177 
L 155.700653 205.901385 
L 155.877262 209.396885 
L 155.227342 211.231559 
L 155.328816 212.413661 
L 156.990845 214.3722 
L 154.291007 216.340325 
L 154.744402 217.502765 
L 156.42378 218.736652 
L 158.372242 219.313474 
L 162.739254 220.093916 
L 163.934404 220.764265 
L 164.339642 221.490119 
L 166.582878 222.745034 
L 168.39198 224.861671 
L 170.01677 225.267144 
L 169.894101 225.805758 
L 171.066137 226.872625 
L 171.761006 227.034023 
L 170.847785 228.195452 
L 171.279345 229.948442 
L 170.380897 230.179159 
L 167.440872 232.47658 
L 168.121608 233.812656 
L 168.226289 234.911753 
L 167.038849 237.37069 
L 165.26314 239.039033 
L 164.484138 240.85475 
L 163.685875 241.695925 
L 160.208961 241.046612 
L 159.866662 241.912349 
L 158.650316 242.367394 
L 158.53279 243.151851 
L 157.455166 244.103692 
L 155.568118 244.63819 
L 154.416235 244.674293 
L 153.666138 245.60397 
L 152.904475 243.921822 
L 152.961639 242.408581 
L 152.214749 241.709696 
L 151.515376 238.921431 
L 149.949029 236.7154 
L 149.808388 234.311977 
L 149.293983 232.449012 
L 148.11938 231.342886 
L 147.101479 229.6827 
L 146.85359 227.416584 
L 145.912112 226.538759 
L 146.761107 224.250127 
L 146.515146 222.972981 
L 147.105974 222.301269 
L 146.583858 221.180252 
L 147.65378 220.307537 
L 148.860487 218.552535 
L 145.447791 218.538806 
L 144.015022 218.705339 
L 143.31245 218.101825 
L 144.318146 216.400452 
L 144.496683 213.35663 
L 143.613647 211.871924 
L 143.66374 210.436066 
L 144.398425 209.064669 
" clip-path="url(#p33e6704735)" style="fill: #ffffff"/>
   </g>
   <g id="patch_24">
    <path d="M 150.297751 218.51208 
L 151.855109 218.714859 
L 153.6032 217.678969 
L 154.779082 218.32319 
L 154.059827 220.683642 
L 152.649516 220.580787 
L 150.899506 221.513158 
L 149.607377 221.405506 
L 149.603522 220.347066 
L 150.297751 218.51208 
" clip-path="url(#p33e6704735)" style="fill: #ffffff"/>
   </g>
   <g id="patch_25">
    <path d="M 94.436522 247.445908 
L 92.409718 245.619104 
L 92.186223 244.916053 
L 92.554853 243.537628 
L 92.816227 241.157 
L 94.47377 239.403488 
L 94.768544 237.588848 
L 95.768466 236.067779 
L 97.024626 234.770961 
L 97.33738 230.723438 
L 97.806188 230.200043 
L 98.011054 228.266993 
L 98.81446 225.936138 
L 99.965939 226.191535 
L 101.716597 225.616195 
L 101.58238 224.700727 
L 102.397342 222.497229 
L 102.038342 221.92109 
L 100.292827 221.513082 
L 99.98264 219.849403 
L 98.495922 218.833345 
L 99.712908 217.956454 
L 100.228601 217.019908 
L 102.627251 216.983705 
L 103.593772 216.715504 
L 104.687456 217.139522 
L 107.3295 216.495309 
L 110.275956 217.067594 
L 111.808911 216.185602 
L 111.762665 214.811512 
L 112.876897 214.109538 
L 113.925632 214.314809 
L 115.18436 213.975118 
L 117.009513 214.328975 
L 117.331897 213.3195 
L 118.272736 213.844991 
L 119.399813 213.221924 
L 121.128636 213.439156 
L 121.321297 214.20884 
L 120.569273 215.145908 
L 121.134419 216.631009 
L 122.105435 218.085209 
L 121.74066 218.631652 
L 121.98599 219.884479 
L 123.715453 218.981292 
L 126.065937 218.570759 
L 128.500547 219.210881 
L 129.470923 221.410489 
L 128.098525 222.622213 
L 127.988709 224.569876 
L 126.769157 224.986991 
L 125.338955 226.570754 
L 124.668488 227.721956 
L 124.985746 229.009986 
L 124.522065 230.629557 
L 123.973619 231.322575 
L 123.813711 233.486341 
L 123.447008 234.4417 
L 122.491405 235.419904 
L 122.296177 236.524145 
L 121.682225 237.154872 
L 121.61672 239.246467 
L 120.268076 240.922916 
L 117.661992 241.073228 
L 117.030709 242.523944 
L 116.997956 244.260713 
L 115.484909 243.349218 
L 115.141329 241.55802 
L 114.296821 240.952057 
L 113.798468 239.820359 
L 113.869117 237.857612 
L 113.573694 237.521171 
L 111.445416 237.222987 
L 109.527787 239.793187 
L 109.217592 240.860862 
L 106.83757 242.408143 
L 105.179387 244.410267 
L 103.697173 245.3863 
L 100.574756 248.294751 
L 99.642907 248.454575 
L 99.579969 249.26761 
L 98.393818 250.438677 
L 97.25967 250.164577 
L 96.481315 249.066439 
L 95.837178 249.390397 
L 94.436522 247.445908 
" clip-path="url(#p33e6704735)" style="fill: #ffffff"/>
   </g>
   <g id="patch_26">
    <path d="M 70.002914 210.491959 
L 70.859123 210.105736 
L 74.348242 210.567161 
L 75.190174 211.29246 
L 77.154049 211.099108 
L 77.402578 210.443936 
L 79.514164 209.360572 
L 81.372718 210.259339 
L 82.996221 211.956336 
L 84.211918 212.826694 
L 86.231029 213.616968 
L 87.620768 214.493623 
L 87.484614 215.274149 
L 85.913131 216.971423 
L 84.767426 218.945576 
L 83.540811 219.532111 
L 82.52291 219.492338 
L 81.269965 221.913059 
L 79.108286 224.137954 
L 77.609372 224.645095 
L 76.254953 225.884437 
L 74.179335 225.333904 
L 74.123468 224.265228 
L 73.370156 223.31332 
L 71.287475 223.444045 
L 69.990212 222.887812 
L 67.808625 223.835394 
L 67.425231 224.736291 
L 66.604485 225.175115 
L 62.600321 225.433164 
L 62.122515 226.488237 
L 62.636281 228.241185 
L 60.951768 228.034677 
L 57.946877 229.364525 
L 56.499975 229.416065 
L 55.891806 230.706906 
L 54.304263 230.812025 
L 52.879844 230.397443 
L 50.580101 231.373913 
L 47.879614 231.903378 
L 47.492137 232.244002 
L 47.371623 231.700405 
L 45.397478 229.748449 
L 44.071957 227.493411 
L 43.862596 225.283853 
L 43.429748 224.430077 
L 44.054617 222.883402 
L 43.902411 221.927075 
L 42.504322 220.736133 
L 42.650106 219.311555 
L 42.192207 218.794094 
L 41.090821 214.891033 
L 42.033587 213.815496 
L 42.605796 212.121025 
L 43.351398 211.068208 
L 42.951942 209.682476 
L 43.077819 208.002618 
L 44.19333 206.39622 
L 42.675156 205.2632 
L 42.894787 203.940128 
L 43.782318 203.060864 
L 44.226731 201.730208 
L 46.075647 202.275043 
L 47.885388 201.52498 
L 48.655401 200.637415 
L 49.778623 201.276813 
L 49.948809 202.053198 
L 50.930742 202.77444 
L 51.672497 204.053083 
L 55.184731 204.412875 
L 56.022177 205.310725 
L 57.127411 205.474489 
L 58.198621 206.259552 
L 60.332673 207.193522 
L 62.147557 208.665576 
L 65.622552 209.425117 
L 67.012291 209.992385 
L 67.423943 210.673769 
L 69.213785 211.568522 
L 70.002914 210.491959 
" clip-path="url(#p33e6704735)" style="fill: #ffffff"/>
   </g>
   <g id="patch_27">
    <path d="M 54.127655 258.923019 
L 56.232178 259.231565 
L 57.746505 258.834761 
L 58.606418 260.428036 
L 58.702757 261.511687 
L 61.033965 262.859683 
L 61.097551 264.218033 
L 60.608188 265.979928 
L 61.999206 266.785177 
L 60.86186 269.183027 
L 60.273607 269.771659 
L 60.9858 270.702253 
L 60.786077 272.055468 
L 61.547091 274.207905 
L 63.112799 275.760447 
L 63.108304 277.250851 
L 64.221896 277.617554 
L 65.257777 278.726483 
L 66.878713 278.53431 
L 66.707878 280.069024 
L 64.909695 280.741014 
L 65.517871 282.132117 
L 64.241164 283.558707 
L 65.329057 285.944672 
L 65.100377 286.991227 
L 64.645998 287.561214 
L 62.962747 287.367366 
L 62.02866 286.161517 
L 61.149336 286.950402 
L 59.883647 286.278875 
L 58.693371 287.176523 
L 56.300487 285.880312 
L 55.663278 287.308805 
L 54.633533 286.908449 
L 54.758694 285.834049 
L 53.034138 285.054903 
L 49.167921 286.553371 
L 48.115861 286.494465 
L 47.35908 287.660027 
L 46.036926 287.170412 
L 45.203984 287.779136 
L 42.771874 287.551466 
L 42.660392 286.221568 
L 39.654575 285.420562 
L 39.302763 284.123761 
L 39.613051 283.306812 
L 38.759789 282.743585 
L 37.395749 283.081861 
L 37.540826 284.884052 
L 36.588185 285.283162 
L 34.909539 285.298768 
L 33.624027 285.785959 
L 32.368363 285.111991 
L 30.659204 285.416597 
L 30.122105 284.643242 
L 27.774153 283.891041 
L 27.379362 283.250827 
L 24.945004 282.944756 
L 23.447908 281.962478 
L 22.605496 279.124818 
L 22.924673 277.108359 
L 23.561739 275.510387 
L 23.403758 274.755711 
L 24.48267 274.123535 
L 27.183157 269.450108 
L 30.635668 271.133249 
L 32.650915 270.62551 
L 34.239746 270.933526 
L 36.531788 269.894673 
L 36.939585 268.076901 
L 36.776469 267.315803 
L 37.439865 266.306731 
L 38.844377 267.005616 
L 38.585571 269.251184 
L 40.675313 268.971898 
L 41.763855 269.334585 
L 41.737525 267.488001 
L 42.582673 266.183675 
L 42.104875 264.861925 
L 42.243588 264.003654 
L 41.580184 261.789879 
L 42.305238 261.997599 
L 43.39314 261.429725 
L 43.698192 260.37317 
L 43.179932 259.362491 
L 44.15737 257.67228 
L 46.964465 257.680108 
L 47.948966 259.122027 
L 49.917984 258.277965 
L 50.963495 259.532955 
L 52.707739 259.896004 
L 54.127655 258.923019 
" clip-path="url(#p33e6704735)" style="fill: #ffffff"/>
   </g>
   <g id="patch_28">
    <path d="M 240.160321 171.340623 
L 247.648975 170.990158 
L 249.253201 170.671495 
L 252.115557 170.761049 
L 253.270615 170.563506 
L 252.981118 172.718409 
L 254.180123 173.208049 
L 253.360666 173.93515 
L 252.269548 175.941373 
L 252.142393 177.151456 
L 250.686509 177.856755 
L 250.998623 179.337251 
L 250.637704 181.107859 
L 248.474745 181.694192 
L 248.557591 183.503058 
L 249.815671 183.239555 
L 250.393662 183.805257 
L 249.955032 185.29221 
L 251.821936 187.561852 
L 250.153475 190.26744 
L 250.124182 190.852023 
L 247.809556 193.57788 
L 247.202667 195.312621 
L 246.696924 197.692373 
L 245.740151 199.493057 
L 242.664476 201.353707 
L 242.029675 201.046719 
L 241.70953 199.367795 
L 238.640396 198.674113 
L 234.647528 198.640131 
L 232.595925 198.356982 
L 232.860085 196.857066 
L 231.501811 196.142087 
L 231.423461 192.661882 
L 229.558492 192.953887 
L 230.396569 191.50743 
L 230.074825 188.463482 
L 231.165934 188.015096 
L 231.656585 186.728876 
L 232.566599 186.227434 
L 232.886415 183.33336 
L 232.693754 182.546411 
L 234.956898 180.979862 
L 234.793135 179.584509 
L 236.222689 176.654913 
L 238.149955 175.538551 
L 238.276471 174.585591 
L 239.707953 173.597757 
L 239.552539 172.317792 
L 240.160321 171.340623 
" clip-path="url(#p33e6704735)" style="fill: #ffffff"/>
   </g>
   <g id="patch_29">
    <path d="M 163.685875 241.695925 
L 164.484138 240.85475 
L 165.26314 239.039033 
L 167.038849 237.37069 
L 168.226289 234.911753 
L 168.121608 233.812656 
L 167.440872 232.47658 
L 170.380897 230.179159 
L 171.279345 229.948442 
L 170.847785 228.195452 
L 171.761006 227.034023 
L 172.532298 226.264179 
L 174.739567 225.89017 
L 176.201233 227.877799 
L 177.492714 228.27132 
L 179.897786 228.352995 
L 181.349175 227.392333 
L 184.027187 227.067373 
L 185.332801 226.516242 
L 185.793258 227.861662 
L 186.465703 228.681575 
L 187.888994 229.03071 
L 188.635842 228.77676 
L 190.130396 231.826736 
L 191.292077 232.688609 
L 189.898256 232.532009 
L 189.28752 233.081659 
L 188.491178 235.198615 
L 189.634955 235.643466 
L 191.169189 237.794741 
L 193.007836 236.881083 
L 194.250503 235.612961 
L 195.465654 233.275507 
L 195.461041 232.390779 
L 197.308375 234.726727 
L 198.820302 235.364433 
L 201.876675 234.60708 
L 203.839978 235.459349 
L 204.834436 236.358588 
L 206.890121 239.228479 
L 207.887577 239.158293 
L 206.90715 239.569886 
L 205.604112 241.076191 
L 205.455122 241.722171 
L 204.074373 243.006068 
L 204.276664 243.945854 
L 203.694186 245.344625 
L 203.992167 246.121616 
L 203.456566 249.026607 
L 201.767558 250.228946 
L 199.995065 252.211247 
L 198.649636 253.204619 
L 196.609978 255.43746 
L 195.161797 256.309216 
L 195.520797 259.381624 
L 194.027017 260.508457 
L 190.723497 259.766711 
L 189.799358 260.197589 
L 187.367956 259.117515 
L 185.653266 259.23191 
L 184.385539 258.11772 
L 183.092131 257.921086 
L 181.967622 256.830372 
L 180.989544 255.119933 
L 180.329994 253.014854 
L 179.835497 253.081159 
L 179.022453 251.838122 
L 178.42777 251.665006 
L 177.301341 250.190856 
L 176.833173 248.952162 
L 175.474899 249.110581 
L 174.185986 248.539904 
L 170.969806 247.857838 
L 170.403372 247.14828 
L 169.181252 247.02184 
L 167.162149 246.317055 
L 165.972134 244.770581 
L 164.811665 244.452886 
L 163.685875 241.695925 
" clip-path="url(#p33e6704735)" style="fill: #ffffff"/>
   </g>
   <g id="patch_30">
    <path d="M 54.127655 258.923019 
L 54.106468 257.94686 
L 55.376113 256.245453 
L 55.754373 254.765605 
L 56.330437 253.923024 
L 56.345849 252.399185 
L 57.998249 251.937078 
L 57.587876 250.991745 
L 56.860254 250.817383 
L 56.954657 249.395372 
L 56.267499 247.486733 
L 55.525104 246.856645 
L 57.019523 247.16759 
L 57.612279 246.701914 
L 58.8845 247.360411 
L 59.905609 245.986893 
L 61.605534 246.091094 
L 65.573747 245.641503 
L 65.918606 245.331636 
L 68.478452 245.716201 
L 68.992218 245.552715 
L 70.385172 245.431182 
L 73.099144 246.941132 
L 75.979447 247.676625 
L 77.439186 247.334005 
L 79.68499 247.744739 
L 80.955275 246.977816 
L 81.69639 245.888357 
L 86.065977 245.083824 
L 86.528362 244.58579 
L 88.182698 245.20906 
L 88.03242 246.051674 
L 89.25326 246.633353 
L 89.467116 248.040027 
L 90.927495 248.546133 
L 91.947324 248.416444 
L 92.805309 247.467179 
L 94.436522 247.445908 
L 95.837178 249.390397 
L 96.481315 249.066439 
L 97.25967 250.164577 
L 96.052323 252.08037 
L 96.564161 252.642941 
L 95.889839 254.64988 
L 95.191762 255.082534 
L 94.697904 256.47564 
L 94.241933 254.993628 
L 89.971244 255.743607 
L 90.277584 256.730279 
L 89.310415 257.594813 
L 89.354725 258.387536 
L 87.523789 259.531432 
L 86.229741 259.24047 
L 84.800827 260.897567 
L 84.854775 261.34326 
L 86.670939 261.554507 
L 86.119277 262.795221 
L 86.460938 263.990287 
L 85.469366 265.171464 
L 84.14898 264.501401 
L 82.445847 264.754997 
L 81.794648 265.735567 
L 80.085724 266.375132 
L 79.383793 268.221481 
L 78.025527 268.39841 
L 76.007065 269.380823 
L 76.768727 270.096728 
L 75.463114 271.124183 
L 75.489444 272.96347 
L 74.831174 273.455804 
L 71.785189 273.325509 
L 71.780685 274.792235 
L 70.936185 276.242588 
L 71.134621 278.597164 
L 70.293337 278.928942 
L 69.439838 278.295891 
L 68.016707 278.07296 
L 66.878713 278.53431 
L 65.257777 278.726483 
L 64.221896 277.617554 
L 63.108304 277.250851 
L 63.112799 275.760447 
L 61.547091 274.207905 
L 60.786077 272.055468 
L 60.9858 270.702253 
L 60.273607 269.771659 
L 60.86186 269.183027 
L 61.999206 266.785177 
L 60.608188 265.979928 
L 61.097551 264.218033 
L 61.033965 262.859683 
L 58.702757 261.511687 
L 58.606418 260.428036 
L 57.746505 258.834761 
L 56.232178 259.231565 
L 54.127655 258.923019 
" clip-path="url(#p33e6704735)" style="fill: #ffffff"/>
   </g>
   <g id="patch_31">
    <path d="M 194.027017 260.508457 
L 195.520797 259.381624 
L 195.161797 256.309216 
L 196.609978 255.43746 
L 198.649636 253.204619 
L 199.995065 252.211247 
L 201.767558 250.228946 
L 203.456566 249.026607 
L 203.992167 246.121616 
L 203.694186 245.344625 
L 204.276664 243.945854 
L 204.074373 243.006068 
L 205.455122 241.722171 
L 205.604112 241.076191 
L 206.90715 239.569886 
L 207.887577 239.158293 
L 208.041601 240.016547 
L 209.33463 241.087429 
L 211.288278 241.094053 
L 211.802742 241.91341 
L 212.980409 242.367217 
L 214.470653 241.391151 
L 214.6161 242.638229 
L 213.609242 244.113027 
L 213.26951 245.612261 
L 214.536588 245.961707 
L 214.812103 246.594043 
L 214.359979 248.254111 
L 216.320647 248.410964 
L 216.759917 249.490002 
L 218.642874 247.577861 
L 219.558662 247.708552 
L 219.078929 243.678656 
L 219.502971 242.314767 
L 220.910202 242.981135 
L 222.566912 245.564727 
L 223.609241 245.899712 
L 224.325861 245.072763 
L 225.551356 244.683754 
L 226.763695 245.343278 
L 228.049115 245.424398 
L 229.104028 244.493601 
L 230.531275 243.810996 
L 231.582645 242.055119 
L 232.480933 242.562387 
L 234.034831 241.846852 
L 236.306241 241.852189 
L 238.949943 240.129132 
L 239.104961 239.494061 
L 240.749507 238.701885 
L 241.907847 238.784621 
L 243.929711 239.732017 
L 246.960351 240.114359 
L 248.008219 239.529541 
L 249.70636 240.368729 
L 248.235198 241.125139 
L 247.666845 242.484137 
L 247.989877 243.673344 
L 249.828516 244.906987 
L 250.317879 247.209829 
L 249.42071 247.675825 
L 250.937613 249.383259 
L 250.174671 251.161619 
L 251.431471 253.519444 
L 251.2478 254.694771 
L 251.951019 255.402839 
L 252.067897 257.911675 
L 250.911923 259.850785 
L 251.978629 260.95128 
L 253.643698 261.933322 
L 252.307444 262.167583 
L 251.321656 263.298238 
L 250.312744 262.564269 
L 249.081626 262.964768 
L 246.584078 263.128893 
L 245.981692 264.045085 
L 243.908642 265.259343 
L 242.750739 265.353266 
L 241.29999 264.613683 
L 240.653286 263.918932 
L 239.23593 266.046772 
L 238.045923 266.272666 
L 235.870119 265.922748 
L 235.277355 265.137247 
L 233.668625 264.960638 
L 232.437515 263.980346 
L 232.061823 265.345244 
L 230.031155 266.525781 
L 229.902071 263.871776 
L 229.478214 262.826577 
L 228.638849 262.106665 
L 228.508478 260.497574 
L 226.638366 258.140262 
L 225.422029 258.008611 
L 222.641264 258.286728 
L 222.03951 257.276537 
L 221.984282 255.884146 
L 220.363347 256.440421 
L 216.939733 255.613539 
L 217.312218 256.694134 
L 215.536509 259.564689 
L 212.180328 262.359697 
L 210.92224 262.22239 
L 209.128552 263.499981 
L 208.309094 262.628949 
L 205.412091 262.644042 
L 204.755757 263.264694 
L 204.812913 264.311291 
L 204.003724 264.975419 
L 203.048761 263.227724 
L 201.334063 261.602538 
L 198.968174 260.962862 
L 197.480817 262.466869 
L 196.00245 262.98694 
L 194.606288 262.794716 
L 193.425271 261.552647 
L 194.027017 260.508457 
" clip-path="url(#p33e6704735)" style="fill: #ffffff"/>
   </g>
   <g id="patch_32">
    <path d="M 202.870023 197.939378 
L 204.630521 196.029468 
L 203.531062 195.49375 
L 204.209239 194.767533 
L 204.319694 193.797191 
L 205.419153 193.66895 
L 206.114023 192.732774 
L 207.65468 193.078079 
L 207.404224 191.480267 
L 208.166526 190.635919 
L 208.501755 189.107829 
L 209.238367 188.789326 
L 208.527446 186.743329 
L 209.583883 186.763237 
L 209.526719 185.56504 
L 208.896715 185.044607 
L 209.267273 184.019526 
L 209.170934 182.691513 
L 210.685261 183.042963 
L 210.764899 181.955987 
L 211.448211 181.20525 
L 211.158572 180.526349 
L 211.903534 178.663948 
L 210.802787 178.116621 
L 208.957078 179.080583 
L 208.634694 177.762848 
L 207.488988 175.41903 
L 208.043217 174.282601 
L 209.172862 174.700996 
L 209.258275 172.895152 
L 209.95109 170.996336 
L 210.922198 171.116093 
L 213.490142 170.774828 
L 216.178281 171.369714 
L 219.200537 170.819677 
L 221.395516 170.732362 
L 223.253229 170.937624 
L 224.114092 170.705703 
L 225.759169 171.001665 
L 226.700159 170.592066 
L 229.45871 170.773179 
L 232.070156 170.499322 
L 236.526537 170.567933 
L 240.160321 171.340623 
L 239.552539 172.317792 
L 239.707953 173.597757 
L 238.276471 174.585591 
L 238.149955 175.538551 
L 236.222689 176.654913 
L 234.793135 179.584509 
L 234.956898 180.979862 
L 232.693754 182.546411 
L 232.886415 183.33336 
L 232.566599 186.227434 
L 231.656585 186.728876 
L 231.165934 188.015096 
L 230.074825 188.463482 
L 230.396569 191.50743 
L 229.558492 192.953887 
L 231.423461 192.661882 
L 231.501811 196.142087 
L 232.860085 196.857066 
L 232.595925 198.356982 
L 226.967215 198.036618 
L 226.025803 198.449743 
L 222.782679 198.151105 
L 221.482208 198.95387 
L 218.028737 198.566831 
L 213.853368 199.189831 
L 212.889735 197.406126 
L 211.723306 197.818477 
L 212.025858 198.863314 
L 210.688359 198.760603 
L 207.963309 199.221961 
L 205.77014 198.891808 
L 202.870023 197.939378 
" clip-path="url(#p33e6704735)" style="fill: #ffffff"/>
   </g>
   <g id="patch_33">
    <path d="M 156.990845 214.3722 
L 157.924622 214.268361 
L 159.492897 213.457977 
L 161.083647 214.086937 
L 162.918438 213.528213 
L 165.187997 211.35847 
L 167.336831 210.85888 
L 168.237206 211.003493 
L 170.360989 210.230551 
L 171.236592 209.602854 
L 172.397432 209.517862 
L 174.612495 208.316003 
L 177.001196 209.314283 
L 178.867646 208.362754 
L 181.710743 208.973793 
L 183.69477 209.178525 
L 184.765087 208.927152 
L 186.239229 208.313975 
L 185.530824 212.281438 
L 185.486034 214.106104 
L 186.04533 220.227267 
L 184.008349 220.028267 
L 185.759882 223.115398 
L 187.852192 223.907566 
L 188.768662 225.349805 
L 188.362574 226.399634 
L 188.635842 228.77676 
L 187.888994 229.03071 
L 186.465703 228.681575 
L 185.793258 227.861662 
L 185.332801 226.516242 
L 184.027187 227.067373 
L 181.349175 227.392333 
L 179.897786 228.352995 
L 177.492714 228.27132 
L 176.201233 227.877799 
L 174.739567 225.89017 
L 172.532298 226.264179 
L 171.761006 227.034023 
L 171.066137 226.872625 
L 169.894101 225.805758 
L 170.01677 225.267144 
L 168.39198 224.861671 
L 166.582878 222.745034 
L 164.339642 221.490119 
L 163.934404 220.764265 
L 162.739254 220.093916 
L 158.372242 219.313474 
L 156.42378 218.736652 
L 154.744402 217.502765 
L 154.291007 216.340325 
L 156.990845 214.3722 
" clip-path="url(#p33e6704735)" style="fill: #ffffff"/>
   </g>
   <g id="patch_34">
    <path d="M 249.70636 240.368729 
L 251.049651 240.892941 
L 251.631464 240.625498 
L 253.554556 241.124651 
L 255.700123 242.013099 
L 258.179262 240.568453 
L 259.416803 239.595198 
L 260.54739 240.829321 
L 263.572113 242.164236 
L 264.612809 241.618736 
L 265.833978 241.62515 
L 267.748762 239.932565 
L 268.52071 238.660723 
L 270.166562 237.657956 
L 272.034022 237.656794 
L 274.067013 237.942705 
L 275.621046 238.903712 
L 278.100656 238.791742 
L 278.408941 237.321178 
L 279.459948 237.350715 
L 280.295239 236.578329 
L 281.375397 234.816172 
L 282.845616 233.869407 
L 283.749501 233.656628 
L 286.599097 230.871065 
L 287.276374 231.070006 
L 288.645279 232.47615 
L 289.560015 233.849651 
L 290.782017 236.65721 
L 292.178211 239.140759 
L 294.934212 240.087928 
L 297.623562 240.232095 
L 300.092019 239.595989 
L 301.138086 240.436726 
L 303.519455 238.795261 
L 304.320335 239.039866 
L 305.243665 240.306869 
L 307.280865 241.855817 
L 308.154852 242.832801 
L 309.701721 242.838903 
L 311.300451 243.863539 
L 313.124771 243.431196 
L 315.603893 243.793732 
L 316.552905 244.772652 
L 317.608054 244.825059 
L 319.165841 246.276945 
L 320.878561 247.127286 
L 321.820713 247.981517 
L 322.769961 249.478739 
L 322.867116 250.283769 
L 322.282214 251.474517 
L 322.657578 254.95037 
L 320.938174 255.763094 
L 320.495983 256.554462 
L 319.375295 257.109473 
L 319.329141 258.762749 
L 318.457487 259.155268 
L 317.042058 258.044453 
L 316.259208 257.968594 
L 314.079549 256.988185 
L 312.66412 256.744547 
L 308.826935 254.578339 
L 307.480218 255.545508 
L 306.48608 257.427253 
L 304.665421 259.091143 
L 302.53136 263.072992 
L 301.466581 262.323939 
L 298.519485 261.628506 
L 297.640297 261.7079 
L 294.758706 263.213683 
L 293.225111 259.386279 
L 292.984293 256.530539 
L 291.579134 254.165046 
L 291.383905 252.603522 
L 291.668402 250.704226 
L 291.152709 249.403192 
L 291.110326 247.83809 
L 290.432789 246.985358 
L 289.644165 244.116932 
L 287.370743 243.858446 
L 284.07686 244.206849 
L 282.723721 245.76456 
L 280.880588 245.189666 
L 279.509469 244.43387 
L 278.235328 245.377032 
L 278.329092 246.664422 
L 276.652281 246.729043 
L 274.953643 247.215679 
L 270.979656 246.988296 
L 269.916804 248.396578 
L 267.576597 248.464255 
L 266.259426 247.597154 
L 264.321242 247.052842 
L 262.38113 247.045013 
L 261.216805 248.17193 
L 261.232857 250.028313 
L 260.284956 254.012814 
L 258.965866 254.587792 
L 258.382092 255.723539 
L 257.425201 256.09871 
L 255.948122 257.484282 
L 255.27316 257.595621 
L 255.092064 258.965536 
L 253.101859 259.952251 
L 251.978629 260.95128 
L 250.911923 259.850785 
L 252.067897 257.911675 
L 251.951019 255.402839 
L 251.2478 254.694771 
L 251.431471 253.519444 
L 250.174671 251.161619 
L 250.937613 249.383259 
L 249.42071 247.675825 
L 250.317879 247.209829 
L 249.828516 244.906987 
L 247.989877 243.673344 
L 247.666845 242.484137 
L 248.235198 241.125139 
L 249.70636 240.368729 
" clip-path="url(#p33e6704735)" style="fill: #ffffff"/>
   </g>
   <g id="patch_35">
    <path d="M 250.124182 190.852023 
L 250.153475 190.26744 
L 251.821936 187.561852 
L 249.955032 185.29221 
L 250.393662 183.805257 
L 249.815671 183.239555 
L 248.557591 183.503058 
L 248.474745 181.694192 
L 250.637704 181.107859 
L 250.998623 179.337251 
L 250.686509 177.856755 
L 252.142393 177.151456 
L 252.269548 175.941373 
L 253.360666 173.93515 
L 254.180123 173.208049 
L 252.981118 172.718409 
L 253.270615 170.563506 
L 256.906864 170.102283 
L 261.004043 170.524819 
L 261.730469 170.245608 
L 266.600085 170.378084 
L 274.045532 168.73278 
L 275.94465 168.511129 
L 280.81265 169.2978 
L 281.966873 169.951314 
L 284.071296 170.690148 
L 285.600253 171.553326 
L 291.386725 174.074258 
L 292.675361 175.14987 
L 293.830435 177.680752 
L 293.5521 178.489048 
L 291.504226 178.324341 
L 288.3767 180.388469 
L 286.692507 180.81396 
L 284.687546 180.471164 
L 282.755994 180.767015 
L 281.578487 181.862796 
L 280.460611 183.683168 
L 279.173187 183.535432 
L 278.480986 183.007718 
L 278.4407 182.061467 
L 276.626834 181.111176 
L 276.925818 182.574475 
L 278.981974 183.649835 
L 278.689876 184.841146 
L 276.66909 183.643808 
L 274.648262 185.097284 
L 273.25099 186.712024 
L 272.711197 188.15492 
L 274.371215 189.10453 
L 274.595299 191.191242 
L 271.959754 191.31567 
L 268.136121 191.226755 
L 267.812499 190.854607 
L 265.53933 190.566996 
L 261.767953 189.72104 
L 256.277071 189.219193 
L 254.533694 190.712005 
L 252.84488 190.409116 
L 250.124182 190.852023 
" clip-path="url(#p33e6704735)" style="fill: #ffffff"/>
   </g>
   <g id="patch_36">
    <path d="M 264.226662 198.955032 
L 263.215251 198.349397 
L 262.987665 197.381311 
L 264.749628 197.626809 
L 266.100671 198.203807 
L 266.82677 198.004008 
L 267.84367 198.607875 
L 266.142212 199.838884 
L 264.226662 198.955032 
" clip-path="url(#p33e6704735)" style="fill: #ffffff"/>
   </g>
   <g id="patch_37">
    <path d="M 278.56182 185.303346 
L 279.382288 184.680438 
L 280.473447 185.692153 
L 281.495482 186.06495 
L 284.76476 185.917424 
L 287.799718 186.283545 
L 289.054195 188.599745 
L 289.082032 189.347603 
L 287.576695 189.53263 
L 284.637293 188.864057 
L 282.359956 188.920185 
L 280.250079 188.088471 
L 278.748589 187.002421 
L 278.26229 185.95287 
L 278.56182 185.303346 
" clip-path="url(#p33e6704735)" style="fill: #ffffff"/>
   </g>
   <g id="patch_38">
    <path d="M 279.949345 199.427653 
L 279.114879 199.278039 
L 278.058602 197.381202 
L 276.997097 197.178372 
L 275.795963 197.723569 
L 274.43002 197.877677 
L 273.81229 197.450747 
L 273.824689 196.294285 
L 275.006724 195.530257 
L 277.431039 194.705841 
L 277.706933 195.639946 
L 278.621787 196.820878 
L 278.540507 198.034917 
L 279.949345 199.427653 

" clip-path="url(#p33e6704735)" style="fill: #ffffff"/>
   </g>
   <g id="patch_58">
    <path d="M 65.100377 286.991227 
L 65.329057 285.944672 
L 64.241164 283.558707 
L 65.517871 282.132117 
L 64.909695 280.741014 
L 66.707878 280.069024 
L 66.878713 278.53431 
L 68.016707 278.07296 
L 69.439838 278.295891 
L 70.293337 278.928942 
L 71.134621 278.597164 
L 70.936185 276.242588 
L 71.780685 274.792235 
L 71.785189 273.325509 
L 74.831174 273.455804 
L 75.489444 272.96347 
L 75.463114 271.124183 
L 76.768727 270.096728 
L 76.007065 269.380823 
L 78.025527 268.39841 
L 79.383793 268.221481 
L 80.085724 266.375132 
L 81.794648 265.735567 
L 82.445847 264.754997 
L 84.14898 264.501401 
L 85.469366 265.171464 
L 86.460938 263.990287 
L 86.119277 262.795221 
L 86.670939 261.554507 
L 84.854775 261.34326 
L 84.800827 260.897567 
L 86.229741 259.24047 
L 87.523789 259.531432 
L 89.354725 258.387536 
L 89.310415 257.594813 
L 90.277584 256.730279 
L 89.971244 255.743607 
L 94.241933 254.993628 
L 94.697904 256.47564 
L 93.262568 258.359598 
L 93.256785 260.748661 
L 95.010658 262.831383 
L 94.569461 264.405155 
L 94.738999 266.223322 
L 95.959839 267.683869 
L 96.795357 267.498026 
L 98.270509 269.873073 
L 99.273637 270.574609 
L 99.653185 271.648142 
L 102.150733 272.302473 
L 101.887423 274.259117 
L 100.52787 275.313786 
L 98.636563 275.762451 
L 96.023417 275.814631 
L 94.519368 276.549315 
L 93.591374 275.875322 
L 92.872742 276.166081 
L 91.007125 279.270038 
L 92.425122 281.061395 
L 92.829072 283.887758 
L 92.348059 284.47048 
L 92.866968 285.457473 
L 93.906704 285.995405 
L 94.155881 287.881325 
L 94.995886 288.62356 
L 96.279285 288.527726 
L 95.782607 289.112822 
L 95.98047 291.791086 
L 94.566296 292.813887 
L 93.405237 292.077519 
L 94.127219 290.538175 
L 92.260163 288.34546 
L 91.055956 288.717971 
L 90.645086 289.730199 
L 91.22312 290.199621 
L 91.175039 291.320637 
L 89.609112 291.32993 
L 89.212637 291.837467 
L 89.938188 293.265354 
L 91.163515 293.775685 
L 92.028747 295.154119 
L 90.872461 295.070827 
L 89.809097 296.140236 
L 87.516045 295.114666 
L 87.290202 294.144307 
L 85.797601 294.077758 
L 84.405816 293.084789 
L 84.012616 291.56558 
L 83.028662 291.148035 
L 82.352387 291.689537 
L 81.233214 291.307161 
L 80.570197 291.894942 
L 79.191822 292.117603 
L 79.398692 290.966174 
L 78.354115 290.133257 
L 77.069318 290.08489 
L 75.767215 291.245317 
L 76.282529 291.837804 
L 74.553007 292.291729 
L 72.762501 290.721905 
L 71.378132 289.921774 
L 70.327049 291.175898 
L 69.566935 290.812697 
L 68.58847 289.57822 
L 69.358744 288.234736 
L 68.913446 286.849374 
L 66.693425 286.045338 
L 66.060231 286.851588 
L 65.100377 286.991227 
" clip-path="url(#p33e6704735)" style="fill: #ffffff"/>
   </g>
   <g id="patch_59">
    <path d="M 129.658239 171.359007 
L 130.513236 172.519552 
L 132.033977 172.684999 
L 132.383987 173.142931 
L 132.301142 175.361639 
L 133.341518 180.798101 
L 132.80335 182.908475 
L 133.70051 183.044663 
L 133.415374 184.626145 
L 133.714643 185.801026 
L 130.747639 187.530817 
L 130.237729 188.32221 
L 129.374601 188.222673 
L 128.304679 189.289421 
L 126.549518 188.298254 
L 125.611255 189.125582 
L 125.019139 187.572719 
L 122.50553 187.222271 
L 121.95966 185.576858 
L 119.286782 186.547234 
L 118.225859 186.51592 
L 117.252267 185.716177 
L 116.588863 186.074007 
L 117.040978 187.333652 
L 116.143179 187.952747 
L 115.097659 190.308846 
L 114.107376 191.778863 
L 111.194952 191.234314 
L 110.468617 193.042692 
L 109.421179 193.011867 
L 109.513014 191.254222 
L 107.971069 191.606833 
L 106.631424 190.979675 
L 105.135716 191.168843 
L 103.811483 190.817603 
L 103.030561 189.64806 
L 100.234384 187.360513 
L 97.985372 186.927943 
L 95.72094 187.057826 
L 94.537348 187.872393 
L 93.706972 187.101294 
L 91.147774 186.85184 
L 89.395828 185.36886 
L 89.588489 184.572601 
L 87.929667 184.115873 
L 86.700476 183.333419 
L 86.320289 182.22529 
L 86.469928 181.244156 
L 86.053132 180.033072 
L 84.563848 179.583448 
L 83.540172 178.844546 
L 82.023269 177.238704 
L 80.566106 176.952313 
L 79.430678 176.184994 
L 79.676 175.069003 
L 79.549484 173.101231 
L 80.243074 172.471985 
L 81.833824 172.577591 
L 82.308414 171.750348 
L 81.601987 171.229116 
L 82.903737 169.908089 
L 82.468322 169.197968 
L 82.501075 167.210894 
L 83.242182 165.003827 
L 84.572838 165.609673 
L 86.714609 164.459632 
L 86.430752 163.769536 
L 87.029291 162.973479 
L 86.668363 161.681561 
L 87.072961 160.663701 
L 88.727929 160.707448 
L 89.327873 159.309864 
L 90.874044 160.335299 
L 92.460273 160.794965 
L 94.33004 160.707995 
L 95.918551 161.119512 
L 99.227105 162.671213 
L 101.014927 163.200879 
L 103.933774 163.071737 
L 106.997099 162.167793 
L 108.78886 161.421677 
L 110.799865 160.15247 
L 112.0052 159.867434 
L 113.369425 160.58945 
L 114.265306 161.981276 
L 114.250844 162.784783 
L 115.161186 163.803492 
L 116.158212 166.127765 
L 118.317652 169.092226 
L 119.753805 170.496898 
L 121.385237 171.166531 
L 124.337603 171.187996 
L 125.507163 171.737056 
L 129.658239 171.359007 
" clip-path="url(#p33e6704735)" style="fill: #ffffff"/>
   </g>
   <g id="patch_60">
    <path d="M 94.697904 256.47564 
L 95.191762 255.082534 
L 95.889839 254.64988 
L 96.564161 252.642941 
L 96.052323 252.08037 
L 97.25967 250.164577 
L 98.393818 250.438677 
L 98.222983 251.392605 
L 98.689232 252.888262 
L 101.017873 253.878832 
L 102.774962 255.850291 
L 103.766525 256.422904 
L 105.093334 258.692942 
L 105.434346 259.749699 
L 108.295381 260.925101 
L 109.506592 261.022442 
L 110.649081 260.256326 
L 110.840455 261.764071 
L 111.666974 263.924218 
L 111.765241 264.697034 
L 112.797907 266.562735 
L 113.180662 267.92919 
L 114.279481 268.382349 
L 114.843988 269.189686 
L 114.565914 270.819931 
L 115.554909 272.229501 
L 118.411458 272.784605 
L 119.096689 273.331048 
L 121.034234 273.638743 
L 122.145258 274.235674 
L 122.97049 273.512387 
L 124.588219 274.152829 
L 125.386481 274.915131 
L 125.105839 277.463016 
L 124.125825 277.502915 
L 123.206182 278.809892 
L 121.910846 279.980076 
L 120.301477 279.700874 
L 117.705671 278.422878 
L 117.229793 280.464944 
L 117.640165 281.197541 
L 117.254195 282.851389 
L 117.202814 284.756341 
L 117.874569 286.307115 
L 117.289515 287.857082 
L 118.010075 289.017872 
L 117.673878 290.502443 
L 116.987401 289.754551 
L 114.852902 289.266021 
L 113.649663 288.189449 
L 110.906145 287.542897 
L 109.926417 288.833527 
L 110.064583 289.950242 
L 107.807727 289.235659 
L 107.368734 289.73211 
L 106.046521 289.263799 
L 104.295745 287.971721 
L 103.802384 287.036665 
L 101.793441 287.309739 
L 98.681799 286.486561 
L 98.053715 285.702146 
L 96.480532 285.945623 
L 95.937019 286.996555 
L 96.687259 287.401398 
L 96.279285 288.527726 
L 94.995886 288.62356 
L 94.155881 287.881325 
L 93.906704 285.995405 
L 92.866968 285.457473 
L 92.348059 284.47048 
L 92.829072 283.887758 
L 92.425122 281.061395 
L 91.007125 279.270038 
L 92.872742 276.166081 
L 93.591374 275.875322 
L 94.519368 276.549315 
L 96.023417 275.814631 
L 98.636563 275.762451 
L 100.52787 275.313786 
L 101.887423 274.259117 
L 102.150733 272.302473 
L 99.653185 271.648142 
L 99.273637 270.574609 
L 98.270509 269.873073 
L 96.795357 267.498026 
L 95.959839 267.683869 
L 94.738999 266.223322 
L 94.569461 264.405155 
L 95.010658 262.831383 
L 93.256785 260.748661 
L 93.262568 258.359598 
L 94.697904 256.47564 
" clip-path="url(#p33e6704735)" style="fill: #ffffff"/>
   </g>
   <g id="patch_61">
    <path d="M 155.568118 244.63819 
L 157.455166 244.103692 
L 158.53279 243.151851 
L 158.650316 242.367394 
L 159.866662 241.912349 
L 160.208961 241.046612 
L 163.685875 241.695925 
L 164.811665 244.452886 
L 164.678086 245.928121 
L 163.831659 247.20812 
L 163.267792 248.766117 
L 162.797697 254.050255 
L 163.614587 254.904755 
L 164.396157 254.82058 
L 165.380018 255.959416 
L 163.768721 257.21827 
L 163.102109 256.882233 
L 159.932807 257.525368 
L 158.644533 257.47881 
L 156.135428 258.528412 
L 155.189455 258.51284 
L 155.330095 256.03621 
L 156.401945 254.130012 
L 156.386532 252.853296 
L 156.948463 252.0633 
L 156.997268 248.439121 
L 156.376254 247.618653 
L 156.313964 246.09835 
L 155.568118 244.63819 
" clip-path="url(#p33e6704735)" style="fill: #ffffff"/>
   </g>
   <g id="patch_62">
    <path d="M 131.184982 269.008498 
L 132.089213 269.917064 
L 131.497736 270.660982 
L 131.780953 271.603109 
L 130.964703 272.478189 
L 130.664794 273.512951 
L 129.351478 275.445841 
L 127.930914 274.405465 
L 126.654847 271.224605 
L 127.676595 270.938736 
L 128.961013 271.266507 
L 129.871018 269.08035 
L 131.184982 269.008498 
" clip-path="url(#p33e6704735)" style="fill: #ffffff"/>
   </g>
   <g id="patch_63">
    <path d="M 115.26463 244.982678 
L 116.211243 245.052594 
L 115.507384 246.482114 
L 116.443088 246.535372 
L 116.732079 247.376109 
L 117.992735 247.452608 
L 118.088425 248.945302 
L 119.996425 250.257978 
L 120.993131 250.42989 
L 120.814603 252.274909 
L 119.401741 253.461557 
L 117.137309 252.675971 
L 116.611986 252.064832 
L 114.951236 251.738306 
L 115.979415 250.736305 
L 113.968015 250.541313 
L 113.942324 249.723463 
L 111.768448 249.284992 
L 111.474313 248.058091 
L 112.561576 247.000291 
L 113.465167 246.879878 
L 113.906364 245.755536 
L 115.26463 244.982678 
" clip-path="url(#p33e6704735)" style="fill: #ffffff"/>
   </g>
   <g id="patch_64">
    <path d="M 74.132458 235.524669 
L 74.193468 234.644126 
L 74.134385 233.481526 
L 73.124826 232.704333 
L 73.384289 231.13493 
L 74.239706 231.232431 
L 75.019988 230.302114 
L 76.473305 230.69699 
L 77.653682 230.091987 
L 78.287549 230.584077 
L 77.66268 232.085727 
L 77.862403 233.086482 
L 76.736614 235.526117 
L 75.399536 235.930791 
L 74.132458 235.524669 
" clip-path="url(#p33e6704735)" style="fill: #ffffff"/>
   </g>
   <g id="patch_65">
    <path d="M 163.676246 259.290757 
L 164.990201 258.843818 
L 166.01067 257.600385 
L 166.576456 257.792886 
L 167.807566 257.139078 
L 168.878127 257.58621 
L 169.330243 256.959136 
L 170.710352 257.86553 
L 171.293478 258.878776 
L 170.874755 261.294043 
L 173.774325 262.65432 
L 172.986341 264.510467 
L 171.865687 264.963786 
L 172.08339 266.781953 
L 170.640351 268.018534 
L 168.481248 268.058189 
L 168.405465 267.144884 
L 166.510311 265.614741 
L 165.070479 263.025484 
L 165.302316 262.011033 
L 166.044702 261.476838 
L 165.157172 260.124861 
L 163.676246 259.290757 
" clip-path="url(#p33e6704735)" style="fill: #ffffff"/>
   </g>
   <g id="patch_66">
    <path d="M 191.292077 232.688609 
L 193.462873 233.156205 
L 195.461041 232.390779 
L 195.465654 233.275507 
L 194.250503 235.612961 
L 193.007836 236.881083 
L 191.169189 237.794741 
L 189.634955 235.643466 
L 188.491178 235.198615 
L 189.28752 233.081659 
L 189.898256 232.532009 
L 191.292077 232.688609 
" clip-path="url(#p33e6704735)" style="fill: #ffffff"/>
   </g>
   <g id="patch_67">
    <path d="M 214.6161 242.638229 
L 215.051448 242.867809 
L 217.509997 241.93511 
L 219.502971 242.314767 
L 219.078929 243.678656 
L 219.558662 247.708552 
L 218.642874 247.577861 
L 216.759917 249.490002 
L 216.320647 248.410964 
L 214.359979 248.254111 
L 214.812103 246.594043 
L 214.536588 245.961707 
L 213.26951 245.612261 
L 213.609242 244.113027 
L 214.6161 242.638229 
" clip-path="url(#p33e6704735)" style="fill: #ffffff"/>
   </g>
   <g id="patch_68">
    <path d="M 171.201727 196.210841 
L 170.858517 197.514561 
L 171.855527 198.710847 
L 172.995693 198.993517 
L 175.457685 198.180928 
L 175.525977 197.549856 
L 177.865418 196.379134 
L 178.570969 196.840121 
L 179.604864 196.509622 
L 180.970208 197.599326 
L 182.145602 199.447661 
L 183.185878 201.553709 
L 185.377624 201.952642 
L 186.522134 204.220197 
L 186.543986 205.915922 
L 185.638257 206.95044 
L 184.765087 208.927152 
L 183.69477 209.178525 
L 181.710743 208.973793 
L 178.867646 208.362754 
L 177.001196 209.314283 
L 174.612495 208.316003 
L 172.397432 209.517862 
L 171.236592 209.602854 
L 171.346517 208.986554 
L 171.347148 208.945232 
L 170.260063 207.562952 
L 170.127528 207.544139 
L 170.049876 207.328211 
L 170.084919 207.074304 
L 169.942974 206.500934 
L 168.276188 206.250773 
L 168.171659 204.041029 
L 168.563656 202.183376 
L 167.246982 201.700368 
L 167.025154 200.912771 
L 165.624658 199.260084 
L 165.842529 197.065669 
L 166.616153 197.509965 
L 169.149425 196.217559 
L 171.201727 196.210841 
" clip-path="url(#p33e6704735)" style="fill: #ffffff"/>
   </g>
  </g>
 </g>
 <defs>
  <clipPath id="p33e6704735">
   <rect x="0" y="0" width="497.320907" height="345.6"/>
  </clipPath>
 </defs>
</svg>
